<svg id="visual" viewBox="0 0 900 600" width="900" height="600" xmlns="http://www.w3.org/2000/svg" xmlns:xlink="http://www.w3.org/1999/xlink" version="1.1"><rect x="0" y="0" width="900" height="600" fill="#ffffff"></rect><path d="M0 432L129 374L257 407L386 373L514 356L643 397L771 399L900 394L900 601L771 601L643 601L514 601L386 601L257 601L129 601L0 601Z" fill="#fff8ef"></path><path d="M0 450L129 421L257 429L386 393L514 417L643 422L771 412L900 399L900 601L771 601L643 601L514 601L386 601L257 601L129 601L0 601Z" fill="#ffe6c3"></path><path d="M0 501L129 511L257 508L386 459L514 478L643 485L771 463L900 478L900 601L771 601L643 601L514 601L386 601L257 601L129 601L0 601Z" fill="#ffd497"></path><path d="M0 500L129 519L257 532L386 499L514 489L643 494L771 519L900 509L900 601L771 601L643 601L514 601L386 601L257 601L129 601L0 601Z" fill="#fec26b"></path><path d="M0 524L129 555L257 531L386 543L514 553L643 528L771 526L900 530L900 601L771 601L643 601L514 601L386 601L257 601L129 601L0 601Z" fill="#fcaf3c"></path></svg>